<svg xmlns="http://www.w3.org/2000/svg" width="236" height="26" fill="none"><path fill="#fff" fill-rule="evenodd" d="M75.651 23.304c0 .507-.255.76-.766.76h-8.997a.745.745 0 0 1-.53-.19c-.135-.127-.203-.306-.203-.537a.77.77 0 0 1 .138-.48.977.977 0 0 1 .432-.297l.701-.215a.73.73 0 0 0 .407-.314c.098-.154.147-.374.147-.661v-9.554a.643.643 0 0 0-.114-.388c-.076-.105-.217-.201-.424-.29l-.945-.313c-.25-.122-.43-.251-.538-.389a.789.789 0 0 1-.163-.504c0-.198.068-.36.204-.488l.053-.044a.83.83 0 0 1 .51-.146h1.43l-.012-.096a1.348 1.348 0 0 0-.229-.557l-.554-.801a5.236 5.236 0 0 1-.554-1.066c-.163-.414-.245-.923-.245-1.53 0-1.443.49-2.597 1.467-3.462C67.844.877 69.235.444 71.04.444c1.162 0 2.126.188 2.893.562.766.375 1.339.874 1.72 1.496.38.623.57 1.303.57 2.042 0 .87-.226 1.523-.677 1.958-.45.435-1.03.653-1.736.653-.782 0-1.412-.253-1.89-.76s-.718-1.18-.718-2.017v-1.47c0-.387-.075-.67-.228-.852-.152-.182-.385-.273-.7-.273-.402 0-.707.138-.913.413-.207.276-.31.673-.31 1.19 0 .53.122 1.025.367 1.488.244.463.546.895.904 1.298.359.402.718.787 1.076 1.157.359.369.66.732.905 1.09l.07.108c.131.214.22.428.263.64l.015.087h2.414c.25 0 .443.053.579.157.136.105.204.268.204.488 0 .33-.142.6-.424.81-.283.21-.728.314-1.337.314H72.93V21.32c0 .309.046.546.139.711a.589.589 0 0 0 .448.298l1.402.215c.25.033.434.113.554.24.12.126.18.3.18.52Zm-32.092.38c-.978.474-2.119.71-3.423.71-1.38 0-2.616-.291-3.708-.875a6.4 6.4 0 0 1-2.583-2.537c-.63-1.108-.945-2.455-.945-4.042 0-1.532.328-2.9.986-4.107a7.38 7.38 0 0 1 2.746-2.86c1.174-.7 2.543-1.05 4.107-1.05 1.337 0 2.464.199 3.382.596.918.396 1.62.934 2.103 1.611a3.82 3.82 0 0 1 .725 2.273c0 .882-.252 1.573-.758 2.074-.505.502-1.192.753-2.062.753-.89 0-1.567-.257-2.029-.77-.462-.512-.692-1.214-.692-2.107v-1.057c0-.54-.098-.948-.294-1.224-.195-.275-.472-.413-.831-.413s-.682.146-.97.438c-.288.292-.51.73-.668 1.314-.158.584-.236 1.306-.236 2.166 0 1.234.182 2.27.546 3.107.364.837.86 1.466 1.49 1.884.631.419 1.348.628 2.152.628s1.478-.118 2.021-.355c.544-.237.962-.636 1.255-1.198.163-.155.291-.254.383-.298a.623.623 0 0 1 .27-.066.374.374 0 0 1 .268.157c.07.094.1.24.09.438-.087 1.08-.418 2.033-.994 2.86-.576.826-1.353 1.476-2.331 1.95Zm16.568-.33c-1.223.672-2.644 1.008-4.263 1.008-1.575 0-2.958-.328-4.147-.984a7.067 7.067 0 0 1-2.78-2.719c-.662-1.157-.994-2.496-.994-4.016 0-1.455.348-2.763 1.044-3.926.695-1.162 1.657-2.085 2.884-2.769 1.228-.683 2.64-1.024 4.238-1.024 1.586 0 2.972.33 4.156.991a7.107 7.107 0 0 1 2.77 2.744c.664 1.168.995 2.518.995 4.05 0 1.454-.345 2.757-1.035 3.909-.69 1.151-1.646 2.063-2.868 2.735Zm-3.024-.711c-.337.066-.665-.083-.986-.447-.32-.363-.625-.975-.913-1.834-.288-.86-.562-1.99-.823-3.389-.25-1.4-.39-2.55-.423-3.454-.033-.904.032-1.587.195-2.05.163-.463.413-.733.75-.81.337-.066.665.083.986.446.32.364.627.976.92 1.835.294.86.571 1.99.832 3.389.26 1.4.405 2.553.432 3.462.027.91-.044 1.596-.212 2.058-.168.463-.421.728-.758.794Zm29.158 1.421c.511 0 .767-.253.767-.76 0-.22-.06-.394-.18-.52-.12-.127-.304-.207-.554-.24l-1.402-.215a.589.589 0 0 1-.448-.298c-.092-.165-.138-.402-.138-.71V11.022h1.157c.608 0 1.054-.105 1.336-.314.283-.21.424-.48.424-.81 0-.22-.068-.383-.204-.488-.135-.104-.328-.157-.578-.157h-2.414l-.015-.086a1.998 1.998 0 0 0-.264-.641l-.07-.107a8.286 8.286 0 0 0-.904-1.091c-.359-.37-.718-.755-1.076-1.157a6.526 6.526 0 0 1-.905-1.298 3.138 3.138 0 0 1-.366-1.488c0-.517.103-.914.31-1.19.206-.275.51-.413.912-.413.315 0 .549.091.7.273.153.182.229.465.229.851v1.471c0 .838.24 1.51.717 2.017.478.507 1.108.76 1.89.76.707 0 1.286-.218 1.737-.653.45-.435.676-1.088.676-1.958 0-.739-.19-1.42-.57-2.042-.38-.622-.954-1.121-1.72-1.496-.766-.374-1.73-.562-2.893-.562-1.804 0-3.195.433-4.172 1.298-.978.865-1.467 2.02-1.467 3.463 0 .606.081 1.115.244 1.529.163.413.348.768.554 1.066l.555.801c.122.178.198.363.229.557l.01.096h-1.43a.83.83 0 0 0-.508.146l-.054.044a.637.637 0 0 0-.203.488.79.79 0 0 0 .163.504c.108.138.288.267.538.389l.945.314c.206.088.347.184.424.289a.644.644 0 0 1 .114.388v9.554c0 .287-.05.507-.147.661a.73.73 0 0 1-.407.314l-.701.215a.977.977 0 0 0-.432.298.77.77 0 0 0-.139.479c0 .231.068.41.204.537.136.127.312.19.53.19h8.996Zm12.762-.48c-1.054.54-2.27.81-3.65.81-1.522 0-2.858-.316-4.01-.95a6.82 6.82 0 0 1-2.697-2.66c-.647-1.141-.97-2.46-.97-3.96 0-1.575.312-2.955.937-4.14a6.684 6.684 0 0 1 2.714-2.769c1.184-.66 2.608-.991 4.27-.991 1.412 0 2.63.278 3.65.834 1.022.557 1.807 1.312 2.356 2.265.549.953.823 2.014.823 3.182 0 .507-.136.906-.407 1.198l-.065.065c-.268.249-.637.373-1.109.373h-7.45l.015.076c.198.908.536 1.634 1.013 2.18.815.931 1.902 1.397 3.26 1.397.87 0 1.638-.198 2.306-.595.669-.397 1.117-.948 1.345-1.653.13-.143.247-.24.351-.29a.636.636 0 0 1 .268-.074c.109 0 .201.044.278.133.076.088.114.236.114.446 0 1.08-.294 2.069-.881 2.967-.586.898-1.407 1.617-2.46 2.157Zm-5.779-8.068a12.968 12.968 0 0 1-.023-.79c0-1.037.076-1.852.228-2.447.152-.595.348-1.017.587-1.264.239-.248.505-.372.799-.372.38 0 .736.325 1.067.975.332.65.497 1.73.497 3.24 0 .462-.206.694-.62.694h-2.533l-.002-.036Zm21.361 8.069c-1.054.54-2.271.81-3.651.81-1.521 0-2.858-.317-4.009-.95a6.824 6.824 0 0 1-2.698-2.662c-.646-1.14-.97-2.46-.97-3.959 0-1.575.313-2.955.938-4.14a6.68 6.68 0 0 1 2.713-2.769c1.185-.66 2.608-.991 4.27-.991 1.413 0 2.63.278 3.651.834 1.022.557 1.807 1.312 2.356 2.265.548.953.823 2.014.823 3.182 0 .507-.136.906-.408 1.198l-.065.065c-.267.249-.637.373-1.108.373h-7.451l.016.076c.198.908.535 1.634 1.013 2.18.815.931 1.901 1.397 3.26 1.397.869 0 1.638-.198 2.306-.595.668-.397 1.116-.948 1.345-1.653.13-.143.247-.24.35-.29a.64.64 0 0 1 .269-.074c.109 0 .201.044.277.133.076.088.114.236.114.446a5.31 5.31 0 0 1-.88 2.967c-.587.898-1.407 1.617-2.461 2.157Zm-5.779-8.069a12.58 12.58 0 0 1-.023-.79c0-1.037.076-1.852.228-2.447.152-.595.347-1.017.587-1.264.239-.248.505-.372.798-.372.38 0 .736.325 1.068.975.331.65.497 1.73.497 3.24 0 .462-.207.694-.62.694h-2.533l-.002-.036Zm19.674 8.342c-.136.137-.335.206-.595.206h-8.15c-.239 0-.426-.066-.562-.198-.136-.132-.204-.314-.204-.546 0-.176.041-.322.122-.438.082-.115.193-.223.335-.322l.374-.149a.55.55 0 0 0 .294-.314c.054-.143.081-.38.081-.71V12.99c0-.265-.03-.455-.089-.57a.622.622 0 0 0-.302-.273l-.424-.05a1.05 1.05 0 0 1-.334-.28.644.644 0 0 1-.106-.38c0-.177.055-.334.163-.472.109-.138.294-.256.555-.355l4.628-1.34c.272-.11.5-.187.685-.23a2.09 2.09 0 0 1 .473-.067c.184 0 .323.066.415.199l.03.048c.076.138.129.359.158.662l.124 2.569.028-.095c.055-.179.116-.35.182-.515.396-.986.921-1.719 1.573-2.198.651-.48 1.363-.72 2.135-.72.934 0 1.651.315 2.151.943.5.628.75 1.581.75 2.86 0 1.266-.261 2.198-.783 2.793-.521.595-1.195.892-2.021.892-.804 0-1.399-.204-1.784-.611-.386-.408-.59-.987-.611-1.736l-.017-.661c-.011-.253-.06-.452-.146-.595-.087-.143-.229-.215-.424-.215-.196 0-.367.102-.514.306-.146.204-.258.515-.334.934-.076.418-.114.953-.114 1.603v5.818c0 .309.049.554.147.736.098.182.25.295.456.339l1.223.248c.228.033.391.118.489.256.097.138.146.3.146.487 0 .22-.068.4-.203.538Zm13.03.504c1.619 0 3.04-.336 4.262-1.009 1.223-.672 2.179-1.584 2.869-2.735.69-1.152 1.035-2.455 1.035-3.91 0-1.53-.331-2.88-.994-4.049a7.111 7.111 0 0 0-2.771-2.744c-1.184-.66-2.57-.991-4.156-.991-1.597 0-3.01.341-4.238 1.024-1.228.684-2.189 1.607-2.885 2.77-.695 1.162-1.043 2.47-1.043 3.925 0 1.52.332 2.86.994 4.016a7.074 7.074 0 0 0 2.779 2.72c1.19.655 2.573.983 4.148.983Zm.253-2.166c.321.364.649.513.986.447.337-.066.589-.33.758-.794.168-.462.239-1.148.212-2.058-.027-.909-.171-2.063-.432-3.462-.261-1.4-.538-2.53-.831-3.389-.294-.86-.601-1.47-.921-1.835-.321-.363-.649-.512-.986-.446-.337.077-.587.347-.75.81-.163.463-.228 1.146-.196 2.05.033.903.174 2.055.424 3.454.261 1.4.535 2.53.823 3.389.288.86.592 1.47.913 1.834Zm20.838 2.199c.913 0 1.662-.168 2.249-.504.587-.336 1.024-.736 1.312-1.199.288-.462.432-.887.432-1.273a.748.748 0 0 0-.106-.413.325.325 0 0 0-.285-.165.32.32 0 0 0-.147.033.332.332 0 0 0-.114.1c-.054.198-.138.335-.253.413a.642.642 0 0 1-.366.115c-.185 0-.324-.063-.416-.19-.092-.127-.138-.295-.138-.504v-7.306c0-1.454-.492-2.581-1.475-3.38-.984-.799-2.524-1.198-4.621-1.198-1.63 0-2.991.204-4.083.611-1.092.408-1.912.929-2.461 1.562-.549.634-.823 1.281-.823 1.942 0 .706.204 1.243.611 1.612.408.37.997.554 1.768.554.946 0 1.69-.257 2.233-.769.544-.512.815-1.176.815-1.992v-1.256c0-.308.095-.548.286-.719.19-.17.426-.256.709-.256.304 0 .546.113.725.339.179.226.269.532.269.917l-.001 4.818-.086-.018a5.452 5.452 0 0 0-.911-.087l-.176-.002c-2.336 0-4.077.397-5.223 1.19-1.147.793-1.72 1.9-1.72 3.322 0 1.08.394 1.967 1.182 2.661.787.695 1.833 1.042 3.137 1.042.978 0 1.891-.201 2.738-.604.636-.301 1.152-.697 1.55-1.188l.022-.029.024.074c.125.358.355.678.689.96l.103.084c.603.469 1.453.703 2.551.703Zm-5.615-3.116c.266.358.617.537 1.051.537l.093-.003c.186-.013.365-.065.538-.155l.053-.03v-4.241l-.081-.025a2.528 2.528 0 0 0-.652-.075c-.423 0-.763.199-1.018.595-.256.397-.383.981-.383 1.752 0 .739.133 1.287.399 1.645Zm17.105 3.165c1.934 0 3.418-.446 4.45-1.338 1.032-.893 1.548-2.11 1.548-3.653 0-.937-.174-1.758-.521-2.463-.348-.705-.956-1.33-1.826-1.876-.869-.546-2.091-1.06-3.667-1.546-.587-.187-1.04-.377-1.361-.57-.32-.193-.54-.4-.66-.62a1.473 1.473 0 0 1-.179-.71c0-.375.136-.678.407-.91.272-.231.674-.347 1.206-.347.739 0 1.437.248 2.095.744.657.496 1.382 1.344 2.176 2.546.206.253.412.438.619.553.206.116.402.152.587.108a.573.573 0 0 0 .423-.455c.055-.237.044-.576-.032-1.016l-.424-3.042c-.043-.32-.125-.545-.244-.677a.607.607 0 0 0-.473-.199c-.174 0-.391.06-.652.182-.261.121-.519.245-.774.372-.256.127-.448.19-.579.19-.119 0-.296-.066-.529-.198-.234-.133-.563-.265-.987-.397-.423-.132-.972-.198-1.646-.198-1.119 0-2.127.204-3.023.611-.897.408-1.603.99-2.119 1.744-.516.755-.774 1.656-.774 2.703 0 .925.193 1.735.578 2.43.386.694.976 1.289 1.769 1.784.793.496 1.793.898 2.999 1.207.782.21 1.382.422 1.801.636.418.215.706.45.864.703.157.253.236.534.236.843 0 .407-.136.744-.407 1.008-.272.265-.685.397-1.239.397a3.42 3.42 0 0 1-1.492-.34c-.472-.225-.958-.613-1.458-1.164-.5-.551-1.06-1.306-1.679-2.265-.185-.253-.394-.43-.628-.529a.84.84 0 0 0-.709.017c-.228.088-.374.275-.44.562-.065.286-.048.639.049 1.058l.506 3.289c.076.33.184.55.326.661.141.11.293.165.456.165.185 0 .41-.06.676-.181l.799-.364c.266-.121.481-.182.644-.182.163 0 .377.06.644.182a7.46 7.46 0 0 0 1.043.363c.429.122.969.182 1.621.182Zm15.452-.62c-.718.38-1.565.57-2.543.57-1.652 0-2.893-.401-3.724-1.206-.832-.804-1.247-2.072-1.247-3.801v-7.472c0-.231-.022-.407-.065-.528-.044-.122-.152-.22-.326-.298l-.766-.248c-.185-.088-.305-.196-.359-.322a1.204 1.204 0 0 1-.081-.471c0-.232.081-.422.244-.57a.861.861 0 0 1 .603-.224h.799a.537.537 0 0 0 .309-.115c.109-.078.256-.232.44-.463l3.016-2.53a2.81 2.81 0 0 1 .652-.602c.217-.138.434-.207.652-.207.25 0 .445.077.586.231l.045.055c.111.155.167.379.167.673v2.958h3.407c.239 0 .423.053.554.157.13.105.195.268.195.488 0 .308-.135.573-.407.793l-.061.046c-.274.19-.688.285-1.243.285h-2.445v7.537c0 .827.139 1.438.416 1.835.277.396.682.595 1.214.595.228 0 .44-.05.636-.149.195-.1.372-.229.529-.388.158-.16.307-.34.449-.538.141-.198.277-.396.407-.595a.242.242 0 0 1 .285.058c.082.083.117.25.106.504-.076.893-.323 1.678-.741 2.356a4.37 4.37 0 0 1-1.703 1.587Zm10.675.57c1.38 0 2.597-.27 3.651-.81 1.054-.54 1.874-1.258 2.461-2.156a5.31 5.31 0 0 0 .88-2.967c0-.21-.038-.358-.114-.446a.352.352 0 0 0-.277-.133.64.64 0 0 0-.269.075c-.103.05-.22.146-.35.289-.228.705-.677 1.256-1.345 1.653-.668.397-1.437.595-2.306.595-1.358 0-2.445-.466-3.26-1.397-.478-.546-.815-1.272-1.013-2.18l-.016-.076h7.451c.471 0 .841-.124 1.109-.373l.064-.065c.272-.292.408-.691.408-1.198 0-1.168-.275-2.229-.823-3.182-.549-.953-1.334-1.708-2.355-2.265-1.022-.556-2.239-.834-3.651-.834-1.663 0-3.086.33-4.271.991a6.68 6.68 0 0 0-2.713 2.769c-.625 1.185-.938 2.565-.938 4.14 0 1.5.324 2.819.97 3.96a6.824 6.824 0 0 0 2.698 2.66c1.151.634 2.488.95 4.009.95Zm-2.151-9.669c0 .274.007.537.023.791l.002.036h2.534c.413 0 .619-.232.619-.694 0-1.51-.166-2.59-.497-3.24-.332-.65-.687-.975-1.068-.975-.293 0-.559.124-.798.372-.239.247-.435.669-.587 1.264-.152.595-.228 1.41-.228 2.446Zm19.102 9.34c.261 0 .459-.07.595-.207a.735.735 0 0 0 .203-.538.818.818 0 0 0-.146-.487c-.098-.138-.261-.223-.489-.256l-1.223-.248a.647.647 0 0 1-.456-.34c-.098-.181-.147-.426-.147-.735v-5.818c0-.65.038-1.184.114-1.603.076-.419.188-.73.335-.934.146-.204.317-.306.513-.306s.337.072.424.215c.087.143.136.342.146.595l.017.661c.021.75.225 1.328.611 1.736.386.407.981.611 1.785.611.825 0 1.499-.297 2.021-.892.521-.595.782-1.527.782-2.794 0-1.278-.25-2.231-.75-2.86-.5-.627-1.217-.941-2.151-.941-.772 0-1.483.24-2.135.719-.652.479-1.177 1.212-1.573 2.198a6.529 6.529 0 0 0-.182.515l-.028.095-.124-2.569c-.029-.303-.082-.524-.158-.662l-.03-.048c-.092-.133-.231-.199-.415-.199a2.09 2.09 0 0 0-.473.066 4.956 4.956 0 0 0-.685.232l-4.628 1.339c-.261.099-.446.217-.555.355a.743.743 0 0 0-.162.471c0 .154.035.281.105.38.071.1.182.193.335.281l.423.05a.617.617 0 0 1 .302.272c.06.116.09.306.09.57v8.398c0 .33-.028.567-.082.71a.55.55 0 0 1-.293.314l-.375.149c-.141.1-.253.207-.334.322a.74.74 0 0 0-.123.438c0 .232.068.414.204.546.136.132.323.198.562.198h8.15Zm17.162-.96c-1.032.893-2.515 1.34-4.449 1.34-.652 0-1.193-.061-1.622-.183a7.507 7.507 0 0 1-1.043-.363c-.266-.121-.481-.182-.644-.182-.163 0-.377.06-.644.182l-.798.363c-.267.122-.492.182-.677.182a.726.726 0 0 1-.456-.165c-.141-.11-.25-.33-.326-.661l-.505-3.29c-.098-.418-.114-.77-.049-1.057.065-.287.212-.474.44-.562a.84.84 0 0 1 .709-.017c.233.1.443.276.627.53.62.958 1.179 1.713 1.679 2.264.5.55.986.94 1.459 1.165.473.226.97.339 1.491.339.554 0 .967-.132 1.239-.397.272-.264.407-.6.407-1.008 0-.309-.078-.59-.236-.843-.158-.254-.445-.488-.864-.703-.418-.215-1.018-.427-1.801-.636-1.206-.308-2.206-.71-2.999-1.207-.793-.495-1.382-1.09-1.768-1.785-.386-.694-.579-1.504-.579-2.43 0-1.046.258-1.947.774-2.702.517-.755 1.223-1.336 2.119-1.744.897-.407 1.904-.611 3.024-.611.673 0 1.222.066 1.646.198.424.132.752.264.986.397.233.132.41.198.53.198.13 0 .323-.063.578-.19.256-.127.514-.25.774-.372.261-.121.478-.182.652-.182.196 0 .353.066.473.199.119.132.201.358.244.677l.424 3.042c.076.44.087.78.033 1.016a.575.575 0 0 1-.424.455c-.185.044-.38.008-.587-.108a2.243 2.243 0 0 1-.619-.553c-.793-1.202-1.519-2.05-2.176-2.546-.657-.496-1.355-.744-2.094-.744-.533 0-.935.116-1.206.347a1.136 1.136 0 0 0-.408.91c0 .253.06.49.179.71.12.22.34.427.661.62.32.193.774.383 1.36.57 1.576.485 2.798 1 3.668 1.546.869.545 1.477 1.17 1.825 1.876.348.705.522 1.526.522 2.463 0 1.542-.516 2.76-1.549 3.652Z" clip-rule="evenodd"/><path fill="#0E8784" fill-rule="evenodd" d="M14.389 4.447C10.875.935 5.665.43 2.776 3.322c-2.89 2.89-2.385 8.1 1.124 11.613A10.607 10.607 0 0 0 7.053 17.1c.373-2.17 1.444-4.257 3.07-5.97a23.032 23.032 0 0 0-1.666-.512C5.046 9.682 3.35 6.837 2.955 3.501c.327.393.625.806.923 1.218.577.8 1.15 1.594 1.928 2.235 1.21.996 2.539 1.38 3.992 1.802l.17.049a7.17 7.17 0 0 1 1.835.84c1.443-1.055 3.07-1.757 4.75-2.046a10.573 10.573 0 0 0-2.164-3.152ZM8.446 17.934c.224-2.174 1.277-4.3 2.964-5.987 3.514-3.511 8.724-4.018 11.613-1.125 2.89 2.89 2.386 8.1-1.127 11.613-1.687 1.688-3.813 2.74-5.986 2.966-.29.028-.576.043-.857.043-1.869 0-3.538-.655-4.768-1.885-1.416-1.415-2.07-3.413-1.839-5.625Zm5.14 1.783c1.152-.879 2.399-1.227 3.755-1.597 3.41-.936 5.104-3.782 5.502-7.118-.325.392-.621.802-.916 1.211-.579.802-1.154 1.6-1.936 2.242-1.214.998-2.545 1.384-4.005 1.806l-.155.045c-3.338.97-4.988 3.79-5.369 7.074.329-.395.63-.805.93-1.213.65-.885 1.293-1.76 2.194-2.45Z" clip-rule="evenodd"/></svg>